<svg width="391" height="484" viewBox="0 0 391 484" fill="none" xmlns="http://www.w3.org/2000/svg">
<path d="M35.6562 132.885C80.7535 132.885 117.312 169.444 117.312 214.541C117.312 259.638 80.7536 296.197 35.6562 296.197C-9.44118 296.197 -46 259.638 -46 214.541C-45.9998 169.444 -9.44107 132.885 35.6562 132.885ZM218.345 132.885C263.442 132.885 300 169.444 300 214.541C300 259.638 263.442 296.197 218.345 296.197C173.247 296.197 136.688 259.638 136.688 214.541C136.689 169.444 173.247 132.885 218.345 132.885ZM35.6562 -51C80.7536 -50.9999 117.312 -14.4411 117.312 30.6562C117.312 75.7535 80.7535 112.312 35.6562 112.312C-9.44113 112.312 -45.9999 75.7536 -46 30.6562C-46 -14.4412 -9.44118 -51 35.6562 -51ZM218.345 -51C263.442 -50.9997 300 -14.441 300 30.6562C300 75.7535 263.442 112.312 218.345 112.312C173.247 112.312 136.689 75.7536 136.688 30.6562C136.688 -14.4412 173.247 -51 218.345 -51Z" fill="#FFB458" fill-opacity="0.6"/>
<path d="M126.656 319.885C171.753 319.885 208.312 356.444 208.312 401.541C208.312 446.638 171.754 483.197 126.656 483.197C81.5588 483.197 45 446.638 45 401.541C45.0002 356.444 81.5589 319.885 126.656 319.885ZM309.345 319.885C354.442 319.885 391 356.444 391 401.541C391 446.638 354.442 483.197 309.345 483.197C264.247 483.197 227.688 446.638 227.688 401.541C227.689 356.444 264.247 319.885 309.345 319.885ZM126.656 136C171.754 136 208.312 172.559 208.312 217.656C208.312 262.754 171.754 299.312 126.656 299.312C81.5589 299.312 45.0001 262.754 45 217.656C45 172.559 81.5588 136 126.656 136ZM309.345 136C354.442 136 391 172.559 391 217.656C391 262.753 354.442 299.312 309.345 299.312C264.247 299.312 227.689 262.754 227.688 217.656C227.688 172.559 264.247 136 309.345 136Z" fill="#73BE48" fill-opacity="0.21"/>
</svg>
