<svg width="72" height="85" viewBox="0 0 72 85" fill="none" xmlns="http://www.w3.org/2000/svg">
<path d="M36 0.5C55.8823 0.5 72 16.595 72 36.4492C72 58.9245 52.2692 72.3803 36.6842 84.1569C36.0465 84.8603 34.8762 84.4099 34.876 83.4611V72.3803C15.5139 71.7873 0 55.9279 0 36.4492C0 16.595 16.1178 0.5 36 0.5Z" fill="#73BE48"/>
<path d="M19.8854 42.0736C19.8854 41.1548 20.1214 40.3235 20.5934 39.5795C21.0656 38.8352 21.7215 38.2758 22.561 37.9013C24.398 37.1013 26.0566 36.5233 27.5369 36.1673C29.0171 35.8113 30.5414 35.6333 32.1096 35.6333C33.6894 35.6333 35.2118 35.8098 36.6768 36.1628C38.1418 36.5158 39.7928 37.0953 41.6298 37.9013C42.4675 38.2683 43.1291 38.8241 43.6146 39.5686C44.1001 40.3131 44.3429 41.1481 44.3429 42.0736V43.286C44.3429 43.9882 44.0933 44.5896 43.594 45.0901C43.095 45.5906 42.49 45.8408 41.779 45.8408H22.4403C21.7378 45.8408 21.1364 45.5906 20.6361 45.0901C20.1356 44.5896 19.8854 43.9882 19.8854 43.286V42.0736ZM50.893 45.8408H45.9243C46.097 45.4238 46.2516 45.0087 46.3881 44.5955C46.5246 44.1822 46.5929 43.7457 46.5929 43.286V42.1276C46.5929 40.5226 46.2304 39.2105 45.5054 38.1912C44.7804 37.172 43.66 36.3133 42.1443 35.6153C43.8393 35.8213 45.4538 36.1053 46.9878 36.4673C48.5218 36.8293 49.7638 37.2573 50.7138 37.7513C51.5565 38.2263 52.2229 38.8372 52.7129 39.584C53.2029 40.3305 53.4479 41.1753 53.4479 42.1186V43.286C53.4479 43.9882 53.1976 44.5896 52.6971 45.0901C52.1969 45.5906 51.5955 45.8408 50.893 45.8408ZM32.1119 33.3458C30.4244 33.3458 29.0468 32.8118 27.979 31.7438C26.911 30.6761 26.377 29.2977 26.377 27.6087C26.377 25.92 26.9111 24.5416 27.9794 23.4736C29.0474 22.4056 30.4243 21.8716 32.11 21.8716C33.7955 21.8716 35.1738 22.4057 36.2448 23.474C37.3158 24.542 37.8513 25.9187 37.8513 27.6042C37.8513 29.2962 37.3165 30.6761 36.247 31.7438C35.1775 32.8118 33.7991 33.3458 32.1119 33.3458ZM45.9415 27.6042C45.9415 29.2902 45.4061 30.6686 44.3354 31.7393C43.2649 32.8103 41.8856 33.3458 40.1976 33.3458C39.9164 33.3458 39.6104 33.3256 39.2796 33.2851C38.9491 33.2446 38.6374 33.1713 38.3444 33.0653C38.9564 32.4283 39.4186 31.6466 39.7311 30.7201C40.0436 29.7936 40.1999 28.757 40.1999 27.6102C40.1999 26.4635 40.0431 25.4498 39.7296 24.5693C39.4161 23.6891 38.9544 22.883 38.3444 22.151C38.6254 22.0707 38.9339 22.0041 39.2699 21.9511C39.6056 21.8981 39.9149 21.8716 40.1976 21.8716C41.8834 21.8716 43.2621 22.4072 44.3339 23.4785C45.4056 24.5495 45.9415 25.9247 45.9415 27.6042ZM22.4403 43.286H41.779V42.1096C41.779 41.7133 41.6603 41.3293 41.4228 40.9576C41.1853 40.5856 40.8915 40.3256 40.5415 40.1776C38.7653 39.3953 37.2736 38.8697 36.0666 38.6007C34.8596 38.3317 33.5406 38.1972 32.1096 38.1972C30.6906 38.1972 29.3669 38.3317 28.1384 38.6007C26.9096 38.8697 25.4103 39.3953 23.6403 40.1776C23.2963 40.3248 23.0103 40.5845 22.7823 40.9565C22.5543 41.3287 22.4403 41.7131 22.4403 42.1096V43.286ZM32.1081 30.8896C33.0581 30.8896 33.8434 30.5802 34.4639 29.9615C35.0846 29.3425 35.395 28.5586 35.395 27.6098C35.395 26.6611 35.0855 25.877 34.4665 25.2575C33.8478 24.6377 33.064 24.3278 32.1153 24.3278C31.1663 24.3278 30.382 24.6368 29.7625 25.2548C29.143 25.8728 28.8333 26.6555 28.8333 27.6027C28.8333 28.5527 29.1421 29.3381 29.7599 29.9588C30.3779 30.5793 31.1606 30.8896 32.1081 30.8896Z" fill="white"/>
</svg>
