<svg width="72" height="85" viewBox="0 0 72 85" fill="none" xmlns="http://www.w3.org/2000/svg">
<path d="M36 0.5C55.8823 0.5 72 16.595 72 36.4492C72 58.9245 52.2692 72.3803 36.6842 84.1569C36.0465 84.8603 34.8762 84.4099 34.876 83.4611V72.3803C15.5139 71.7873 0 55.9279 0 36.4492C0 16.595 16.1178 0.5 36 0.5Z" fill="#73BE48"/>
<path d="M34.3875 39.1908L31.695 36.3765C31.4565 36.1147 31.1676 35.9838 30.8284 35.9838C30.4891 35.9838 30.1885 36.0992 29.9265 36.33C29.6647 36.595 29.5339 36.8967 29.5339 37.2352C29.5339 37.5737 29.6647 37.874 29.9265 38.136L33.4834 41.655C33.7404 41.916 34.0422 42.0465 34.389 42.0465C34.7357 42.0465 35.0366 41.916 35.2916 41.655L42.0735 34.911C42.3102 34.68 42.4286 34.393 42.4286 34.05C42.4286 33.707 42.2977 33.417 42.036 33.18C41.799 32.9742 41.5167 32.8776 41.1892 32.8901C40.8617 32.9026 40.595 33.0147 40.389 33.2265L34.3875 39.1908ZM30.2887 52.5202L27.9814 48.5722L23.3674 47.6347C23.0506 47.5787 22.788 47.4105 22.5795 47.13C22.371 46.8492 22.2917 46.5512 22.3417 46.236L22.8667 41.7742L19.9312 38.3486C19.7072 38.1163 19.5952 37.8328 19.5952 37.4981C19.5952 37.1636 19.7072 36.8813 19.9312 36.6513L22.8667 33.2632L22.3417 28.8015C22.2917 28.4862 22.371 28.1882 22.5795 27.9075C22.788 27.627 23.0506 27.4557 23.3674 27.3937L27.9844 26.4633L30.2887 22.4797C30.4557 22.2025 30.6964 22.0057 31.0106 21.8895C31.3246 21.7732 31.6372 21.7865 31.9485 21.9292L36 23.8237L40.0515 21.9292C40.3625 21.7922 40.6751 21.7741 40.9894 21.8748C41.3034 21.9753 41.544 22.1645 41.7112 22.4422L44.0531 26.4633L48.6326 27.3937C48.9494 27.4557 49.212 27.627 49.4205 27.9075C49.629 28.1882 49.7082 28.4862 49.6582 28.8015L49.1332 33.2632L52.0687 36.6513C52.2927 36.8836 52.4047 37.1671 52.4047 37.5018C52.4047 37.8363 52.2927 38.1186 52.0687 38.3486L49.1332 41.7742L49.6582 46.236C49.7082 46.5512 49.629 46.8492 49.4205 47.13C49.212 47.4105 48.9494 47.5787 48.6326 47.6347L44.0561 48.5722L41.7112 52.5577C41.544 52.8355 41.3034 53.0246 40.9894 53.1251C40.6751 53.2258 40.3625 53.2077 40.0515 53.0707L36 51.1762L31.9485 53.0707C31.6375 53.2077 31.3249 53.2196 31.0106 53.1063C30.6966 52.9933 30.456 52.798 30.2887 52.5202ZM32.0209 50.1888L35.9989 48.5051L40.089 50.1888L42.5839 46.4658L46.9354 45.3498L46.4944 40.9125L49.4959 37.4992L46.4944 34.011L46.9354 29.5751L42.5839 28.5341L40.0174 24.8111L36.0015 26.4937L31.911 24.8111L29.4187 28.5363L25.0736 29.5713L25.5056 34.011L22.5041 37.5L25.5056 40.914L25.0736 45.429L29.4172 46.4636L32.0209 50.1888Z" fill="white"/>
</svg>
