<svg width="72" height="85" viewBox="0 0 72 85" fill="none" xmlns="http://www.w3.org/2000/svg">
<path d="M36 0.5C55.8823 0.5 72 16.595 72 36.4492C72 58.9245 52.2692 72.3803 36.6842 84.1569C36.0465 84.8603 34.8762 84.4099 34.876 83.4611V72.3803C15.5139 71.7873 0 55.9279 0 36.4492C0 16.595 16.1178 0.5 36 0.5Z" fill="#73BE48"/>
<path d="M21.9915 23.3091C21.6805 22.8803 21.6337 22.4327 21.8512 21.9662C22.0685 21.5 22.4445 21.2668 22.9792 21.2668H40.3931C40.8091 21.2668 41.196 21.3585 41.5537 21.5417C41.9112 21.7252 42.2111 21.9785 42.4534 22.3015L49.6192 31.762C49.93 32.1907 49.9691 32.6383 49.7366 33.1048C49.5041 33.5711 49.1251 33.8042 48.5996 33.8042C48.3894 33.8042 48.1961 33.7545 48.0199 33.655C47.8436 33.5555 47.687 33.4283 47.55 33.2736L40.4021 23.8217H25.5431L31.6942 31.9798C32.03 32.4283 32.1979 32.9338 32.1979 33.4963C32.1979 34.0586 32.03 34.5666 31.6942 35.0203L25.5431 43.1785H34.248C34.563 43.1785 34.8359 43.2793 35.0666 43.4811C35.2976 43.6831 35.4381 43.9406 35.4881 44.2536C35.5381 44.6493 35.4419 44.9933 35.1994 45.2856C34.9571 45.5781 34.64 45.7243 34.248 45.7243H22.9792C22.4445 45.7243 22.0685 45.4927 21.8512 45.0295C21.6337 44.566 21.6805 44.1168 21.9915 43.6821L29.6535 33.5001L21.9915 23.3091ZM43.986 43.1537L43.3556 42.5237C43.1176 42.2867 42.84 42.1745 42.5227 42.187C42.2052 42.1995 41.9295 42.3242 41.6955 42.5612C41.4555 42.8042 41.334 43.0832 41.331 43.3982C41.328 43.713 41.448 43.9918 41.691 44.2348L43.0909 45.6347C43.3456 45.8895 43.6455 46.0168 43.9905 46.0168C44.3352 46.0168 44.6351 45.8895 44.8901 45.6347L48.4541 42.0988C48.6981 41.8608 48.8201 41.5833 48.8201 41.2663C48.8201 40.9491 48.6986 40.6682 48.4556 40.4237C48.2189 40.1867 47.9415 40.073 47.6235 40.0825C47.3055 40.092 47.028 40.2027 46.791 40.4147L43.986 43.1537ZM45.0547 50.6312C42.9922 50.6312 41.2172 49.8827 39.7297 48.3857C38.2422 46.8887 37.4985 45.1247 37.4985 43.0937C37.4985 41.0187 38.2422 39.2312 39.7297 37.7312C41.2172 36.2312 42.9922 35.4812 45.0547 35.4812C47.1172 35.4812 48.8985 36.2312 50.3985 37.7312C51.8985 39.2312 52.6485 41.0187 52.6485 43.0937C52.6485 45.1247 51.8985 46.8887 50.3985 48.3857C48.8985 49.8827 47.1172 50.6312 45.0547 50.6312Z" fill="white"/>
</svg>
