<svg width="64" height="64" viewBox="0 0 64 64" fill="none" xmlns="http://www.w3.org/2000/svg">
<rect width="64" height="64" rx="32" fill="#73BE48"/>
<path d="M24.9383 30.3332C25.1358 30.3332 25.3066 30.2617 25.4506 30.1186C25.5946 29.9755 25.6666 29.8036 25.6666 29.6029V29.0556C25.6666 28.8618 25.5948 28.6929 25.4513 28.5489C25.3077 28.4051 25.1393 28.3332 24.946 28.3332C24.7457 28.3332 24.5736 28.4051 24.4296 28.5489C24.2856 28.6929 24.2136 28.8618 24.2136 29.0556V29.6029C24.2136 29.8036 24.2851 29.9755 24.428 30.1186C24.5706 30.2617 24.7407 30.3332 24.9383 30.3332ZM28.333 32.9999C28.527 32.9999 28.6973 32.9283 28.844 32.7852C28.9904 32.6421 29.0636 32.4693 29.0636 32.2669V26.3889C29.0636 26.1951 28.9912 26.0262 28.8463 25.8822C28.7014 25.7384 28.5313 25.6666 28.336 25.6666C28.1404 25.6666 27.9706 25.7384 27.8266 25.8822C27.6828 26.0262 27.611 26.1951 27.611 26.3889V32.2669C27.611 32.4693 27.6828 32.6421 27.8266 32.7852C27.9704 32.9283 28.1392 32.9999 28.333 32.9999ZM31.9996 35.6506C32.1936 35.6506 32.364 35.5787 32.5106 35.4349C32.6571 35.2909 32.7303 35.122 32.7303 34.9282V23.7382C32.7303 23.542 32.6578 23.3712 32.513 23.2259C32.3681 23.0806 32.198 23.0079 32.0026 23.0079C31.8071 23.0079 31.6373 23.0806 31.4933 23.2259C31.3495 23.3712 31.2776 23.542 31.2776 23.7382V34.9282C31.2776 35.122 31.3495 35.2909 31.4933 35.4349C31.6371 35.5787 31.8058 35.6506 31.9996 35.6506ZM35.6663 32.9999C35.8603 32.9999 36.0306 32.9283 36.1773 32.7852C36.3237 32.6421 36.397 32.4693 36.397 32.2669V26.3889C36.397 26.1951 36.3245 26.0262 36.1796 25.8822C36.0347 25.7384 35.8646 25.6666 35.6693 25.6666C35.4737 25.6666 35.304 25.7384 35.16 25.8822C35.0162 26.0262 34.9443 26.1951 34.9443 26.3889V32.2669C34.9443 32.4693 35.0162 32.6421 35.16 32.7852C35.3037 32.9283 35.4725 32.9999 35.6663 32.9999ZM39.058 30.3332C39.2555 30.3332 39.4263 30.2617 39.5703 30.1186C39.7143 29.9755 39.7863 29.8036 39.7863 29.6029V29.0556C39.7863 28.8618 39.7145 28.6929 39.571 28.5489C39.4274 28.4051 39.259 28.3332 39.0656 28.3332C38.8654 28.3332 38.6933 28.4051 38.5493 28.5489C38.4053 28.6929 38.3333 28.8618 38.3333 29.0556V29.6029C38.3333 29.8036 38.4046 29.9755 38.5473 30.1186C38.6902 30.2617 38.8604 30.3332 39.058 30.3332ZM23.8006 40.1992L20.4066 43.5932C20.0475 43.9523 19.6345 44.0369 19.1676 43.8469C18.7007 43.6569 18.4673 43.3098 18.4673 42.8056V20.7382C18.4673 20.1227 18.6925 19.589 19.143 19.1372C19.5932 18.6852 20.125 18.4592 20.7383 18.4592H43.2616C43.8772 18.4592 44.4108 18.6852 44.8626 19.1372C45.3146 19.589 45.5406 20.1227 45.5406 20.7382V37.9282C45.5406 38.5416 45.3146 39.0733 44.8626 39.5236C44.4108 39.974 43.8772 40.1992 43.2616 40.1992H23.8006ZM22.934 37.9282H43.2616V20.7382H20.7383V40.3239L22.934 37.9282Z" fill="white"/>
</svg>
