<svg width="72" height="85" viewBox="0 0 72 85" fill="none" xmlns="http://www.w3.org/2000/svg">
<path d="M36 0.5C55.8823 0.5 72 16.595 72 36.4492C72 58.9245 52.2692 72.3803 36.6842 84.1569C36.0465 84.8603 34.8762 84.4099 34.876 83.4611V72.3803C15.5139 71.7873 0 55.9279 0 36.4492C0 16.595 16.1178 0.5 36 0.5Z" fill="#73BE48"/>
<path d="M19.2758 45.3731V25.6155C19.2758 24.967 19.5048 24.4133 19.9628 23.9546C20.4208 23.4961 20.9746 23.2668 21.6244 23.2668H31.5758C32.2185 23.2668 32.7691 23.498 33.2276 23.9602C33.6861 24.4225 33.9154 24.9742 33.9154 25.6155V27.5313C33.9154 27.8918 33.7905 28.1948 33.5408 28.4403C33.291 28.6861 32.9819 28.809 32.6134 28.809C32.2481 28.809 31.948 28.6882 31.713 28.4467C31.478 28.2052 31.3605 27.9061 31.3605 27.5493V25.8307H21.8306V45.1695H31.3605V43.4508C31.3605 43.0941 31.4828 42.795 31.7273 42.5535C31.9718 42.312 32.2775 42.1912 32.6445 42.1912C33.007 42.1912 33.3095 42.3141 33.552 42.5598C33.7943 42.8053 33.9154 43.1083 33.9154 43.4688V45.3757C33.9154 46.0255 33.6861 46.5793 33.2276 47.0373C32.7691 47.4953 32.2185 47.7243 31.5758 47.7243H21.6244C20.9746 47.7243 20.4208 47.4953 19.9628 47.0373C19.5048 46.5793 19.2758 46.0246 19.2758 45.3731ZM37.7528 45.3757V43.3342C37.7528 42.9737 37.8761 42.6707 38.1229 42.4252C38.3696 42.1797 38.6803 42.057 39.0548 42.057C39.4135 42.057 39.712 42.1776 39.9503 42.4188C40.1885 42.6603 40.3076 42.9595 40.3076 43.3162V45.1695H42.123C42.4825 45.1695 42.7838 45.2917 43.0268 45.5362C43.27 45.7805 43.3916 46.0862 43.3916 46.4535C43.3916 46.816 43.2689 47.1183 43.0234 47.3606C42.7779 47.6031 42.4748 47.7243 42.114 47.7243H40.098C39.4505 47.7243 38.8978 47.495 38.4398 47.0362C37.9818 46.5777 37.7528 46.0242 37.7528 45.3757ZM48.3626 45.1695H50.1784V43.3162C50.1784 42.9595 50.3006 42.6603 50.5451 42.4188C50.7894 42.1776 51.0951 42.057 51.4624 42.057C51.8249 42.057 52.1273 42.1797 52.3695 42.4252C52.612 42.6707 52.7333 42.9737 52.7333 43.3342V45.3757C52.7333 46.0242 52.506 46.5777 52.0515 47.0362C51.597 47.495 51.0444 47.7243 50.3936 47.7243H48.3701C48.0046 47.7243 47.6991 47.6007 47.4536 47.3535C47.2081 47.1062 47.0854 46.7997 47.0854 46.434C47.0854 46.0737 47.2078 45.7728 47.4525 45.5313C47.6975 45.2901 48.0009 45.1695 48.3626 45.1695ZM37.7528 27.666V25.6192C37.7528 24.9682 37.9818 24.4133 38.4398 23.9546C38.8978 23.4961 39.4505 23.2668 40.098 23.2668H42.114C42.4748 23.2668 42.7779 23.392 43.0234 23.6422C43.2689 23.8925 43.3916 24.2025 43.3916 24.5722C43.3916 24.932 43.27 25.2317 43.0268 25.4715C42.7838 25.711 42.4825 25.8307 42.123 25.8307H40.3076V27.684C40.3076 28.0407 40.1854 28.3398 39.9409 28.5813C39.6964 28.8226 39.3906 28.9432 39.0236 28.9432C38.6611 28.9432 38.3586 28.8205 38.1161 28.575C37.8739 28.3295 37.7528 28.0265 37.7528 27.666ZM50.1784 27.684V25.8307H48.3626C48.0009 25.8307 47.6975 25.7073 47.4525 25.4606C47.2078 25.2138 47.0854 24.9095 47.0854 24.5475C47.0854 24.1855 47.2081 23.8816 47.4536 23.6358C47.6991 23.3898 48.0048 23.2668 48.3705 23.2668H50.3951C51.0426 23.2668 51.5941 23.4961 52.0496 23.9546C52.5054 24.4133 52.7333 24.9682 52.7333 25.6192V27.666C52.7333 28.0265 52.6099 28.3295 52.3631 28.575C52.1164 28.8205 51.8058 28.9432 51.4313 28.9432C51.0725 28.9432 50.774 28.8226 50.5358 28.5813C50.2975 28.3398 50.1784 28.0407 50.1784 27.684ZM45.1534 36.7777H26.661C26.3003 36.7777 25.9971 36.6542 25.7516 36.4072C25.5061 36.1605 25.3834 35.8558 25.3834 35.4933C25.3834 35.1311 25.5061 34.8287 25.7516 34.5862C25.9971 34.3437 26.3003 34.2225 26.661 34.2225H45.1534L43.3151 32.3377C43.0851 32.083 42.9716 31.7863 42.9746 31.4478C42.9776 31.1096 43.1073 30.8148 43.3635 30.5636C43.617 30.3101 43.9131 30.1833 44.2519 30.1833C44.5909 30.1833 44.8878 30.3107 45.1425 30.5655L49.1445 34.605C49.3995 34.861 49.527 35.1596 49.527 35.5008C49.527 35.8421 49.3995 36.1402 49.1445 36.3952L45.1515 40.4722C44.8968 40.727 44.5975 40.8528 44.2538 40.8498C43.9103 40.8468 43.6105 40.7187 43.3545 40.4655C43.1233 40.234 43.0014 39.9441 42.9889 39.5958C42.9764 39.2473 43.0851 38.9457 43.3151 38.691L45.1534 36.7777Z" fill="white"/>
</svg>
