<svg width="65" height="64" viewBox="0 0 65 64" fill="none" xmlns="http://www.w3.org/2000/svg">
<rect x="0.666504" width="64" height="64" rx="32" fill="#73BE48"/>
<path d="M31.2331 33.5029L28.8398 31.0012C28.6278 30.7685 28.371 30.6522 28.0695 30.6522C27.7679 30.6522 27.5007 30.7548 27.2678 30.9599C27.0351 31.1954 26.9188 31.4637 26.9188 31.7645C26.9188 32.0654 27.0351 32.3323 27.2678 32.5652L30.4295 35.6932C30.6579 35.9252 30.9263 36.0412 31.2345 36.0412C31.5427 36.0412 31.8101 35.9252 32.0368 35.6932L38.0651 29.6985C38.2756 29.4932 38.3808 29.2381 38.3808 28.9332C38.3808 28.6283 38.2645 28.3705 38.0318 28.1599C37.8211 27.977 37.5703 27.8911 37.2791 27.9022C36.988 27.9133 36.7509 28.013 36.5678 28.2012L31.2331 33.5029ZM27.5898 45.3512L25.5388 41.8419L21.4375 41.0085C21.1559 40.9588 20.9225 40.8092 20.7371 40.5599C20.5518 40.3103 20.4814 40.0454 20.5258 39.7652L20.9925 35.7992L18.3831 32.7542C18.184 32.5478 18.0845 32.2958 18.0845 31.9982C18.0845 31.7009 18.184 31.45 18.3831 31.2455L20.9925 28.2339L20.5258 24.2679C20.4814 23.9877 20.5518 23.7228 20.7371 23.4732C20.9225 23.2239 21.1559 23.0717 21.4375 23.0165L25.5415 22.1895L27.5898 18.6485C27.7383 18.4021 27.9521 18.2272 28.2315 18.1239C28.5106 18.0205 28.7885 18.0323 29.0651 18.1592L32.6665 19.8432L36.2678 18.1592C36.5443 18.0374 36.8221 18.0213 37.1015 18.1109C37.3806 18.2002 37.5945 18.3683 37.7431 18.6152L39.8248 22.1895L43.8955 23.0165C44.177 23.0717 44.4105 23.2239 44.5958 23.4732C44.7811 23.7228 44.8516 23.9877 44.8071 24.2679L44.3405 28.2339L46.9498 31.2455C47.1489 31.452 47.2485 31.704 47.2485 32.0015C47.2485 32.2989 47.1489 32.5498 46.9498 32.7542L44.3405 35.7992L44.8071 39.7652C44.8516 40.0454 44.7811 40.3103 44.5958 40.5599C44.4105 40.8092 44.177 40.9588 43.8955 41.0085L39.8275 41.8419L37.7431 45.3845C37.5945 45.6314 37.3806 45.7995 37.1015 45.8889C36.8221 45.9784 36.5443 45.9623 36.2678 45.8405L32.6665 44.1565L29.0651 45.8405C28.7887 45.9623 28.5108 45.9729 28.2315 45.8722C27.9524 45.7718 27.7385 45.5981 27.5898 45.3512ZM29.1295 43.2789L32.6655 41.7822L36.3011 43.2789L38.5188 39.9695L42.3868 38.9775L41.9948 35.0332L44.6628 31.9992L41.9948 28.8985L42.3868 24.9555L38.5188 24.0302L36.2375 20.7209L32.6678 22.2165L29.0318 20.7209L26.8165 24.0322L22.9541 24.9522L23.3381 28.8985L20.6701 31.9999L23.3381 35.0345L22.9541 39.0479L26.8151 39.9675L29.1295 43.2789Z" fill="white"/>
</svg>
