<svg width="65" height="64" viewBox="0 0 65 64" fill="none" xmlns="http://www.w3.org/2000/svg">
<rect x="0.333496" width="64" height="64" rx="32" fill="#73BE48"/>
<path d="M39.3208 35.4197C38.4037 35.4197 37.6289 35.1035 36.9965 34.471C36.364 33.8388 36.0478 33.064 36.0478 32.1467C36.0478 31.2296 36.364 30.4548 36.9965 29.8224C37.6289 29.1901 38.4037 28.874 39.3208 28.874C40.2379 28.874 41.0127 29.1901 41.6452 29.8224C42.2774 30.4548 42.5935 31.2296 42.5935 32.1467C42.5935 33.064 42.2774 33.8388 41.6452 34.471C41.0127 35.1035 40.2379 35.4197 39.3208 35.4197ZM32.6478 41.834V41.134C32.6478 40.6007 32.7767 40.1044 33.0345 39.645C33.2923 39.1855 33.6567 38.8256 34.1278 38.5654C34.9383 38.1489 35.7759 37.8392 36.6408 37.6364C37.5057 37.4335 38.3984 37.332 39.3188 37.332C40.2393 37.332 41.1368 37.432 42.0115 37.632C42.8862 37.832 43.7176 38.1431 44.5058 38.5654C44.9992 38.8034 45.3705 39.1556 45.6198 39.622C45.8689 40.0885 45.9935 40.5925 45.9935 41.134V41.834C45.9935 42.1547 45.8829 42.4241 45.6618 42.6424C45.4405 42.8606 45.1699 42.9697 44.8502 42.9697H33.7835C33.463 42.9697 33.1937 42.8606 32.9755 42.6424C32.757 42.4241 32.6478 42.1547 32.6478 41.834ZM29.5455 31.863C28.0195 31.863 26.7717 31.3784 25.8022 30.409C24.8326 29.4395 24.3478 28.1916 24.3478 26.6654C24.3478 25.1391 24.8326 23.8908 25.8022 22.9204C26.7717 21.9497 28.0195 21.4644 29.5455 21.4644C31.0717 21.4644 32.3215 21.9497 33.2948 22.9204C34.2679 23.8908 34.7545 25.1391 34.7545 26.6654C34.7545 28.1916 34.2679 29.4395 33.2948 30.409C32.3215 31.3784 31.0717 31.863 29.5455 31.863ZM18.6812 39.621C18.6812 38.8317 18.8812 38.1038 19.2812 37.4374C19.6812 36.7709 20.2703 36.2626 21.0485 35.9124C22.5607 35.2404 24.0072 34.7364 25.3878 34.4004C26.7685 34.0644 28.1522 33.8964 29.5388 33.8964C30.2786 33.8964 30.9352 33.931 31.5085 34.0004C32.0816 34.0697 32.701 34.1737 33.3668 34.3124C33.0464 34.6381 32.7258 34.9627 32.4052 35.286C32.0847 35.6091 31.7642 35.9309 31.4435 36.2514C31.1693 36.2196 30.8755 36.199 30.5622 36.1897C30.2488 36.1801 29.9105 36.1754 29.5472 36.1754C28.2994 36.1754 27.0815 36.2991 25.8935 36.5467C24.7053 36.7942 23.4138 37.2572 22.0192 37.9357C21.708 38.0912 21.4525 38.3331 21.2525 38.6614C21.0525 38.9898 20.9525 39.321 20.9525 39.655V40.6987H30.6478V41.755C30.6478 41.9952 30.6995 42.2207 30.8028 42.4314C30.9062 42.6422 31.0314 42.8217 31.1785 42.9697H20.9525C20.3225 42.9697 19.7865 42.7472 19.3445 42.3024C18.9023 41.8575 18.6812 41.3229 18.6812 40.6987V39.621ZM29.5455 29.592C30.3922 29.592 31.0922 29.3158 31.6455 28.7634C32.1988 28.2107 32.4755 27.5109 32.4755 26.664C32.4755 25.8149 32.1994 25.1146 31.6472 24.563C31.0947 24.0115 30.3953 23.7357 29.5488 23.7357C28.7024 23.7357 28.0025 24.0116 27.4492 24.5634C26.8958 25.1154 26.6192 25.8142 26.6192 26.66C26.6192 27.5082 26.8953 28.2089 27.4475 28.762C27.9997 29.3154 28.699 29.592 29.5455 29.592Z" fill="white"/>
</svg>
