<svg width="72" height="85" viewBox="0 0 72 85" fill="none" xmlns="http://www.w3.org/2000/svg">
<path d="M36 0.5C55.8823 0.5 72 16.595 72 36.4492C72 58.9245 52.2692 72.3803 36.6842 84.1569C36.0465 84.8603 34.8762 84.4099 34.876 83.4611V72.3803C15.5139 71.7873 0 55.9279 0 36.4492C0 16.595 16.1178 0.5 36 0.5Z" fill="#73BE48"/>
<path d="M30.6536 53.4125C30.3051 53.4125 30.0151 53.2944 29.7836 53.0582C29.5524 52.8219 29.4367 52.5292 29.4367 52.1799V48.2855C26.958 48.0105 24.8414 47.0334 23.0869 45.3542C21.3326 43.6747 20.284 41.63 19.941 39.2203C19.879 38.8398 19.9529 38.494 20.1626 38.183C20.3726 37.8718 20.6646 37.7162 21.0386 37.7162C21.4134 37.7162 21.7185 37.8558 21.954 38.135C22.1892 38.4143 22.34 38.7422 22.4062 39.1187C22.7492 41.0804 23.6932 42.7033 25.2382 43.9873C26.783 45.2713 28.5844 45.9163 30.6424 45.9223H30.9274C31.0224 45.9223 31.1174 45.9098 31.2124 45.8848C31.5416 46.2825 31.8887 46.6583 32.2537 47.012C32.6187 47.3658 33.0091 47.6968 33.4249 48.005C33.1609 48.073 32.9045 48.1249 32.6557 48.1607C32.4067 48.1964 32.1525 48.238 31.893 48.2855V52.1799C31.893 52.5292 31.7742 52.8219 31.5367 53.0582C31.2992 53.2944 31.0049 53.4125 30.6536 53.4125ZM41.3377 41.9424C40.1922 41.9424 39.2316 41.5315 38.4559 40.7098C37.6801 39.888 37.2922 38.8902 37.2922 37.7162V28.3487C37.2922 27.2422 37.6855 26.2987 38.472 25.5182C39.2585 24.7377 40.2135 24.3474 41.337 24.3474C42.4605 24.3474 43.4149 24.7377 44.2001 25.5182C44.9856 26.2987 45.3784 27.2422 45.3784 28.3487V37.7162C45.3784 38.8902 44.9912 39.888 44.217 40.7098C43.4427 41.5315 42.483 41.9424 41.3377 41.9424ZM41.3407 39.3875C41.7757 39.3875 42.1316 39.2239 42.4084 38.8967C42.6851 38.5697 42.8235 38.1762 42.8235 37.7162V28.3498C42.8235 27.9443 42.68 27.6017 42.393 27.3219C42.106 27.0424 41.7534 26.9027 41.3351 26.9027C40.9169 26.9027 40.5657 27.0424 40.2817 27.3219C39.998 27.6017 39.8561 27.9443 39.8561 28.3498V37.7162C39.8561 38.1762 39.9947 38.5697 40.272 38.8967C40.5495 39.2239 40.9057 39.3875 41.3407 39.3875ZM28.8277 41.4834C28.1247 41.1082 27.5814 40.5812 27.1976 39.9024C26.8136 39.2239 26.6216 38.4952 26.6216 37.7162V28.3487C26.6216 27.2422 27.0142 26.2987 27.7995 25.5182C28.5847 24.7377 29.5384 24.3474 30.6604 24.3474C31.7821 24.3474 32.7371 24.7377 33.5254 25.5182C34.3136 26.2987 34.7077 27.2422 34.7077 28.3487V36.9958C34.341 36.5228 33.9016 36.1497 33.3896 35.8764C32.8774 35.6029 32.3216 35.4662 31.7224 35.4662C30.7786 35.4662 29.9762 35.8122 29.3152 36.5042C28.6542 37.1962 28.3237 38.0337 28.3237 39.0167C28.3237 39.4374 28.3739 39.8519 28.4741 40.2602C28.5744 40.6684 28.6922 41.0762 28.8277 41.4834ZM41.3351 45.9223C43.3931 45.9223 45.1984 45.2803 46.7509 43.9963C48.3031 42.7123 49.2507 41.0894 49.5937 39.1277C49.6617 38.7477 49.8125 38.4174 50.046 38.1369C50.2795 37.8564 50.5861 37.7162 50.9659 37.7162C51.3369 37.7162 51.6274 37.8718 51.8374 38.183C52.0471 38.494 52.121 38.8398 52.059 39.2203C51.716 41.63 50.6674 43.6747 48.9131 45.3542C47.1586 47.0334 45.042 48.0105 42.5632 48.2855V52.1799C42.5632 52.5292 42.445 52.8219 42.2085 53.0582C41.9717 53.2944 41.6785 53.4125 41.3287 53.4125C40.979 53.4125 40.6894 53.2944 40.4599 53.0582C40.2306 52.8219 40.116 52.5292 40.116 52.1799V48.2855C37.6312 48.0105 35.5117 47.0334 33.7575 45.3542C32.003 43.6747 30.9542 41.63 30.6112 39.2203C30.5555 38.8405 30.6304 38.4949 30.8359 38.1834C31.0416 37.8719 31.3336 37.7162 31.7119 37.7162C32.0906 37.7162 32.3972 37.8564 32.6317 38.1369C32.8665 38.4174 33.0147 38.7477 33.0765 39.1277C33.4195 41.0894 34.3672 42.7123 35.9197 43.9963C37.472 45.2803 39.2771 45.9223 41.3351 45.9223Z" fill="white"/>
</svg>
