<svg width="72" height="72" viewBox="0 0 72 72" fill="none" xmlns="http://www.w3.org/2000/svg">
<rect width="72" height="72" rx="30" fill="#F47040"/>
<path d="M36.0002 45.7035C33.3032 45.7035 31.0117 44.7605 29.1257 42.8745C27.2397 40.9885 26.2967 38.697 26.2967 36C26.2967 33.303 27.2397 31.0115 29.1257 29.1255C31.0117 27.2395 33.3032 26.2965 36.0002 26.2965C38.6972 26.2965 40.9887 27.2395 42.8747 29.1255C44.7607 31.0115 45.7037 33.303 45.7037 36C45.7037 38.697 44.7607 40.9885 42.8747 42.8745C40.9887 44.7605 38.6972 45.7035 36.0002 45.7035ZM52.8927 36C52.8927 34.432 52.684 32.9261 52.2667 31.4825C51.849 30.0391 51.2728 28.6921 50.5382 27.4415C50.2808 27.0188 50.1852 26.5753 50.2512 26.111C50.3172 25.6463 50.5535 25.2608 50.9602 24.9545C51.3665 24.6558 51.7977 24.5481 52.2537 24.6315C52.7093 24.7148 53.0658 24.9676 53.3232 25.39C54.2818 26.9313 55.0195 28.5996 55.5362 30.395C56.0528 32.1903 56.3112 34.0586 56.3112 36C56.3112 37.9413 56.0528 39.8096 55.5362 41.605C55.0195 43.4003 54.2818 45.0686 53.3232 46.61C53.0658 47.0323 52.701 47.2935 52.2287 47.3935C51.756 47.4935 51.3165 47.3941 50.9102 47.0955C50.4955 46.7971 50.2655 46.4136 50.2202 45.945C50.1748 45.4766 50.2808 45.0271 50.5382 44.5965C51.2728 43.3538 51.849 42.0005 52.2667 40.5365C52.684 39.0721 52.8927 37.56 52.8927 36ZM36.0002 19.1075C34.4402 19.1075 32.928 19.3161 31.4637 19.7335C29.9997 20.1511 28.6463 20.7273 27.4037 21.462C26.973 21.7193 26.5235 21.8253 26.0552 21.78C25.5865 21.7346 25.203 21.5046 24.9047 21.09C24.606 20.6836 24.5067 20.2441 24.6067 19.7715C24.7067 19.2991 24.9678 18.9343 25.3902 18.677C26.9315 17.7183 28.5998 16.9806 30.3952 16.464C32.1905 15.9473 34.0588 15.689 36.0002 15.689C37.9748 15.689 39.8598 15.9473 41.6552 16.464C43.4505 16.9806 45.1188 17.7183 46.6602 18.677C47.0745 18.9343 47.3337 19.2991 47.4377 19.7715C47.5417 20.2441 47.4443 20.6836 47.1457 21.09C46.8393 21.4966 46.4435 21.7246 45.9582 21.774C45.4732 21.8233 45.0193 21.7193 44.5967 21.462C43.354 20.7273 42.009 20.1511 40.5617 19.7335C39.114 19.3161 37.5935 19.1075 36.0002 19.1075ZM19.1077 36C19.1077 37.56 19.3143 39.0721 19.7277 40.5365C20.1413 42.0005 20.7195 43.3538 21.4622 44.5965C21.7115 45.0271 21.8135 45.4746 21.7682 45.939C21.7228 46.4036 21.4968 46.7851 21.0902 47.0835C20.6838 47.3901 20.2443 47.4915 19.7717 47.3875C19.2993 47.2835 18.9345 47.0203 18.6772 46.598C17.7185 45.0566 16.9828 43.3903 16.4702 41.599C15.9575 39.8076 15.7012 37.9413 15.7012 36C15.7012 34.0586 15.9575 32.1986 16.4702 30.42C16.9828 28.6413 17.7185 26.9813 18.6772 25.44C18.9345 25.0176 19.291 24.7565 19.7467 24.6565C20.2027 24.5565 20.6338 24.6558 21.0402 24.9545C21.4468 25.2608 21.6832 25.6463 21.7492 26.111C21.8152 26.5753 21.7235 27.0188 21.4742 27.4415C20.7315 28.6921 20.1513 30.0391 19.7337 31.4825C19.3163 32.9261 19.1077 34.432 19.1077 36ZM36.0002 52.8925C37.5682 52.8925 39.074 52.6838 40.5177 52.2665C41.961 51.8488 43.308 51.2686 44.5587 50.526C44.9813 50.2766 45.4268 50.183 45.8952 50.245C46.3638 50.307 46.7473 50.5413 47.0457 50.948C47.3443 51.3623 47.4437 51.7975 47.3437 52.2535C47.2437 52.7091 46.9825 53.0656 46.5602 53.323C45.0188 54.2896 43.3588 55.0273 41.5802 55.536C39.8015 56.0446 37.9415 56.299 36.0002 56.299C34.0588 56.299 32.1988 56.0406 30.4202 55.524C28.6415 55.0073 26.9815 54.2696 25.4402 53.311C25.0178 53.0616 24.7567 52.7091 24.6567 52.2535C24.5567 51.7975 24.66 51.3663 24.9667 50.96C25.265 50.5533 25.6465 50.317 26.1112 50.251C26.5755 50.185 27.023 50.2766 27.4537 50.526C28.6963 51.2686 30.0393 51.8488 31.4827 52.2665C32.9263 52.6838 34.4322 52.8925 36.0002 52.8925Z" fill="white"/>
</svg>
