<svg width="72" height="72" viewBox="0 0 72 72" fill="none" xmlns="http://www.w3.org/2000/svg">
<rect width="72" height="72" rx="30" fill="#5A009E"/>
<path d="M36.0502 56.299C33.2435 56.299 30.6037 55.766 28.1307 54.7C25.6573 53.634 23.5005 52.1807 21.6602 50.34C19.8195 48.4997 18.3662 46.3512 17.3002 43.8945C16.2342 41.4382 15.7012 38.8233 15.7012 36.05C15.7012 31.4513 17.1075 27.3112 19.9202 23.6295C22.7328 19.9475 26.3598 17.5287 30.8012 16.373C31.7238 16.141 32.54 16.2867 33.2497 16.81C33.9593 17.333 34.3142 18.0597 34.3142 18.99C34.3142 19.646 34.1357 20.2208 33.7787 20.7145C33.4213 21.2085 32.9433 21.5135 32.3447 21.6295C29.191 22.2135 26.5465 23.8852 24.4112 26.6445C22.2755 29.4038 21.2077 32.539 21.2077 36.05C21.2077 40.11 22.6497 43.5822 25.5337 46.4665C28.418 49.3505 31.9235 50.7925 36.0502 50.7925C38.0182 50.7925 39.9117 50.4063 41.7307 49.634C43.5493 48.862 45.2135 47.7333 46.7232 46.248C47.1788 45.816 47.7178 45.5627 48.3402 45.488C48.9628 45.4133 49.5028 45.5507 49.9602 45.9C50.6825 46.4477 51.075 47.1635 51.1377 48.0475C51.2003 48.9312 50.9165 49.7222 50.2862 50.4205C48.5462 52.3205 46.4572 53.7753 44.0192 54.785C41.5812 55.7943 38.9248 56.299 36.0502 56.299ZM50.8427 36C50.8427 32.597 49.8185 29.5635 47.7702 26.8995C45.7222 24.2355 43.088 22.5122 39.8677 21.7295C39.261 21.5722 38.7707 21.2382 38.3967 20.7275C38.023 20.2172 37.8362 19.6547 37.8362 19.04C37.8362 18.143 38.1973 17.4285 38.9197 16.8965C39.6423 16.3648 40.4688 16.207 41.3992 16.423C45.7498 17.4817 49.3312 19.8432 52.1432 23.5075C54.9552 27.1722 56.3612 31.2697 56.3612 35.8C56.3612 36.6933 56.3008 37.5845 56.1802 38.4735C56.0595 39.3622 55.8738 40.2445 55.6232 41.1205C55.3818 41.9845 54.8872 42.597 54.1392 42.958C53.3915 43.3193 52.6023 43.3087 51.7717 42.926C51.1573 42.6513 50.7112 42.2358 50.4332 41.6795C50.1555 41.1228 50.104 40.5793 50.2787 40.049C50.4707 39.522 50.6127 38.9368 50.7047 38.2935C50.7967 37.6502 50.8427 36.8857 50.8427 36Z" fill="white"/>
</svg>
