<svg width="72" height="72" viewBox="0 0 72 72" fill="none" xmlns="http://www.w3.org/2000/svg">
<rect width="72" height="72" rx="30" fill="#44C274"/>
<path d="M46.941 54.6456C44.7903 54.6456 42.9705 53.8991 41.4815 52.4061C39.9925 50.9131 39.248 49.0914 39.248 46.9411C39.248 44.7904 39.9925 42.9706 41.4815 41.4816C42.9705 39.9926 44.7903 39.2481 46.941 39.2481C49.0913 39.2481 50.913 39.9926 52.406 41.4816C53.899 42.9706 54.6455 44.7904 54.6455 46.9411C54.6455 49.0914 53.899 50.9131 52.406 52.4061C50.913 53.8991 49.0913 54.6456 46.941 54.6456ZM46.941 51.2271C48.172 51.2271 49.1962 50.8211 50.0135 50.0091C50.8305 49.1968 51.239 48.1721 51.239 46.9351C51.239 45.7081 50.8305 44.6879 50.0135 43.8746C49.1965 43.0613 48.1723 42.6546 46.941 42.6546C45.71 42.6546 44.6878 43.0619 43.8745 43.8766C43.0612 44.6916 42.6545 45.7131 42.6545 46.9411C42.6545 48.1721 43.0618 49.1943 43.8765 50.0076C44.6915 50.8206 45.713 51.2271 46.941 51.2271ZM25.059 48.0981C22.9087 48.0981 21.087 47.3534 19.594 45.8641C18.101 44.3751 17.3545 42.5554 17.3545 40.4051C17.3545 38.2548 18.101 36.4329 19.594 34.9396C21.087 33.4466 22.9087 32.7001 25.059 32.7001C27.2097 32.7001 29.0295 33.4466 30.5185 34.9396C32.0075 36.4329 32.752 38.2548 32.752 40.4051C32.752 42.5554 32.0075 44.3751 30.5185 45.8641C29.0295 47.3534 27.2097 48.0981 25.059 48.0981ZM25.059 44.6916C26.2647 44.6916 27.2805 44.2776 28.1065 43.4496C28.9325 42.6219 29.3455 41.6069 29.3455 40.4046C29.3455 39.1989 28.9323 38.1813 28.106 37.3516C27.2793 36.5216 26.2657 36.1066 25.065 36.1066C23.8553 36.1066 22.8375 36.5211 22.0115 37.3501C21.1858 38.1788 20.773 39.1949 20.773 40.3986C20.773 41.6056 21.1858 42.6228 22.0115 43.4501C22.8372 44.2778 23.853 44.6916 25.059 44.6916ZM34.059 30.9556C31.9087 30.9556 30.087 30.2109 28.594 28.7216C27.101 27.2326 26.3545 25.4129 26.3545 23.2626C26.3545 21.1123 27.101 19.2906 28.594 17.7976C30.087 16.3043 31.9087 15.5576 34.059 15.5576C36.2097 15.5576 38.0315 16.3043 39.5245 17.7976C41.0175 19.2906 41.764 21.1123 41.764 23.2626C41.764 25.4129 41.0175 27.2326 39.5245 28.7216C38.0315 30.2109 36.2097 30.9556 34.059 30.9556ZM34.051 27.5491C35.2873 27.5491 36.3122 27.1443 37.1255 26.3346C37.9388 25.5253 38.3455 24.5039 38.3455 23.2706C38.3455 22.0339 37.9397 21.0091 37.128 20.1961C36.3163 19.3828 35.2922 18.9761 34.0555 18.9761C32.8192 18.9761 31.7943 19.3821 30.981 20.1941C30.1677 21.0058 29.761 22.0298 29.761 23.2661C29.761 24.5024 30.1668 25.5254 30.9785 26.3351C31.7902 27.1444 32.8143 27.5491 34.051 27.5491Z" fill="white"/>
</svg>
