<svg width="72" height="72" viewBox="0 0 72 72" fill="none" xmlns="http://www.w3.org/2000/svg">
<rect width="72" height="72" rx="30" fill="#5144C2"/>
<path d="M36.3638 56.2109C35.0812 56.2109 33.8487 56.1192 32.6663 55.9359C31.4837 55.7526 30.351 55.4736 29.2683 55.0989C28.9027 54.9866 28.604 54.7802 28.3723 54.4799C28.1407 54.1792 28.0248 53.8266 28.0248 53.4219C28.0248 52.9232 28.1933 52.5039 28.5303 52.1639C28.8673 51.8242 29.2833 51.6544 29.7783 51.6544C29.9687 51.6544 30.1718 51.6917 30.3878 51.7664C31.2798 52.0917 32.2592 52.3377 33.3258 52.5044C34.3925 52.6711 35.4052 52.7711 36.3638 52.8044C36.8448 52.8044 37.249 52.9689 37.5763 53.2979C37.9037 53.6269 38.0673 54.0331 38.0673 54.5164C38.0673 54.9997 37.9037 55.4029 37.5763 55.7259C37.249 56.0492 36.8448 56.2109 36.3638 56.2109ZM44.5553 54.5304C44.072 54.5304 43.6687 54.3667 43.3453 54.0394C43.0223 53.7121 42.8608 53.3079 42.8608 52.8269V44.0119C42.8608 43.5312 43.0245 43.1271 43.3518 42.7994C43.6792 42.4721 44.0832 42.3084 44.5638 42.3084H53.3673C53.848 42.3084 54.254 42.4729 54.5853 42.8019C54.9167 43.1312 55.0823 43.5374 55.0823 44.0204C55.0823 44.5117 54.9167 44.9191 54.5853 45.2424C54.254 45.5654 53.848 45.7269 53.3673 45.7269H48.6543L54.1183 51.1674C54.4583 51.5071 54.6263 51.9069 54.6223 52.3669C54.6183 52.8266 54.4503 53.2224 54.1183 53.5544C53.7703 53.8941 53.3705 54.0639 52.9188 54.0639C52.4672 54.0639 52.0713 53.8941 51.7313 53.5544L46.2673 48.1139V52.8269C46.2673 53.3079 46.1028 53.7121 45.7738 54.0394C45.4448 54.3667 45.0387 54.5304 44.5553 54.5304ZM22.8043 50.6869C22.5723 50.6869 22.3507 50.6476 22.1393 50.5689C21.9283 50.4902 21.7337 50.3619 21.5553 50.1839C20.4763 49.1302 19.5225 47.9724 18.6938 46.7104C17.8652 45.4484 17.2135 44.0554 16.7388 42.5314C16.7468 42.5474 16.7055 42.3362 16.6148 41.8979C16.6148 41.4169 16.7838 41.0127 17.1218 40.6854C17.4598 40.3581 17.8812 40.1944 18.3858 40.1944C18.7885 40.1944 19.1328 40.3064 19.4188 40.5304C19.7048 40.7544 19.9018 41.0362 20.0098 41.3759C20.4338 42.6082 20.9815 43.7521 21.6528 44.8074C22.3242 45.8624 23.1032 46.8332 23.9898 47.7199C24.1775 47.9079 24.3107 48.0909 24.3893 48.2689C24.468 48.4469 24.5073 48.6684 24.5073 48.9334C24.5073 49.4284 24.3437 49.8444 24.0163 50.1814C23.689 50.5184 23.285 50.6869 22.8043 50.6869ZM54.5008 37.5269C54.0175 37.5269 53.6143 37.3632 53.2913 37.0359C52.968 36.7086 52.8063 36.3006 52.8063 35.8119C52.773 34.9199 52.6897 34.0009 52.5563 33.0549C52.423 32.1089 52.177 31.2066 51.8183 30.3479C51.793 30.3049 51.735 30.0309 51.6443 29.5259C51.6443 29.0452 51.8118 28.6392 52.1468 28.3079C52.4815 27.9766 52.892 27.8109 53.3783 27.8109C53.7723 27.8109 54.1123 27.9221 54.3983 28.1444C54.684 28.3667 54.8848 28.6534 55.0008 29.0044C55.4088 30.1027 55.7148 31.2162 55.9188 32.3449C56.1228 33.4736 56.2248 34.6292 56.2248 35.8119C56.2248 36.3006 56.0583 36.7086 55.7253 37.0359C55.3923 37.3632 54.9842 37.5269 54.5008 37.5269ZM17.4173 35.6649C16.929 35.6649 16.5232 35.5016 16.1998 35.1749C15.8765 34.8482 15.7148 34.4479 15.7148 33.9739V33.7619C15.8738 32.2046 16.2072 30.6831 16.7148 29.1974C17.2228 27.7114 17.9015 26.3271 18.7508 25.0444C18.8942 24.8161 19.0965 24.6264 19.3578 24.4754C19.6192 24.3244 19.91 24.2489 20.2303 24.2489C20.7193 24.2489 21.1275 24.4146 21.4548 24.7459C21.7818 25.0776 21.9453 25.4869 21.9453 25.9739C21.9453 26.1499 21.9195 26.3184 21.8678 26.4794C21.8165 26.6407 21.7472 26.7881 21.6598 26.9214C21.0342 28.0471 20.5022 29.2117 20.0638 30.4154C19.6252 31.6191 19.311 32.8512 19.1213 34.1119C19.088 34.5342 18.9115 34.8987 18.5918 35.2054C18.2718 35.5117 17.8803 35.6649 17.4173 35.6649ZM49.1238 24.7554C48.8998 24.7554 48.6802 24.7161 48.4648 24.6374C48.2498 24.5587 48.055 24.4241 47.8803 24.2334C46.923 23.2961 45.898 22.4721 44.8053 21.7614C43.7127 21.0507 42.5575 20.4827 41.3398 20.0574C41.0002 19.9374 40.7183 19.7291 40.4943 19.4324C40.2703 19.1361 40.1583 18.7816 40.1583 18.3689C40.1583 17.8699 40.3268 17.4609 40.6638 17.1419C41.0008 16.8226 41.4168 16.6629 41.9118 16.6629C42.0612 16.6629 42.2517 16.7002 42.4833 16.7749C44.066 17.3162 45.509 18.0199 46.8123 18.8859C48.1157 19.7519 49.2862 20.7284 50.3238 21.8154C50.5022 21.9934 50.6305 22.1834 50.7088 22.3854C50.7875 22.5871 50.8268 22.7926 50.8268 23.0019C50.8268 23.4969 50.6632 23.9129 50.3358 24.2499C50.0085 24.5869 49.6045 24.7554 49.1238 24.7554ZM26.0433 21.9434C25.544 21.9434 25.1225 21.7749 24.7788 21.4379C24.4348 21.1009 24.2628 20.6879 24.2628 20.1989C24.2628 19.8786 24.3383 19.5916 24.4893 19.3379C24.6403 19.0842 24.83 18.8879 25.0583 18.7489C26.4157 17.8916 27.8083 17.2192 29.2363 16.7319C30.6643 16.2446 32.1735 15.9049 33.7638 15.7129H34.0248C34.5025 15.7129 34.904 15.8766 35.2293 16.2039C35.5547 16.5312 35.7173 16.9354 35.7173 17.4164C35.7173 17.8721 35.568 18.2616 35.2693 18.5849C34.9707 18.9079 34.6102 19.0861 34.1878 19.1194C32.8292 19.2941 31.5788 19.5857 30.4368 19.9944C29.2948 20.4031 28.1318 20.9534 26.9478 21.6454C26.7985 21.7281 26.6555 21.7984 26.5188 21.8564C26.3822 21.9144 26.2237 21.9434 26.0433 21.9434Z" fill="white"/>
</svg>
