<svg width="446" height="120" viewBox="0 0 446 120" fill="none" xmlns="http://www.w3.org/2000/svg">
<g clip-path="url(#clip0_9584_5183)">
<rect width="287.34" height="99" rx="30" fill="#F4A340"/>
<path d="M53.4502 75.456C51.6742 75.456 50.2342 75.048 49.1302 74.232C48.0262 73.368 47.1622 72.048 46.5382 70.272L32.4982 31.176C31.7302 29.016 31.8502 27.192 32.8582 25.704C33.9142 24.168 35.7622 23.4 38.4022 23.4C40.1782 23.4 41.5702 23.832 42.5782 24.696C43.5862 25.512 44.3782 26.808 44.9542 28.584L55.6822 60.768H52.2982L63.8182 28.584C64.4902 26.808 65.3302 25.512 66.3382 24.696C67.3462 23.832 68.6422 23.4 70.2262 23.4C71.8102 23.4 73.0822 23.832 74.0422 24.696C75.0022 25.512 75.7942 26.832 76.4182 28.656L87.2182 60.768H84.3382L95.3542 28.584C95.9302 26.808 96.6982 25.512 97.6582 24.696C98.6662 23.832 100.058 23.4 101.834 23.4C104.042 23.4 105.65 24.168 106.658 25.704C107.714 27.192 107.834 29.016 107.018 31.176L92.8342 70.344C92.2102 72.072 91.3462 73.368 90.2422 74.232C89.1862 75.048 87.7702 75.456 85.9942 75.456C84.1702 75.456 82.7062 75.048 81.6022 74.232C80.5462 73.368 79.7062 72.048 79.0822 70.272L68.9302 41.76H70.7302L60.3622 70.344C59.6902 72.072 58.8262 73.368 57.7702 74.232C56.7142 75.048 55.2742 75.456 53.4502 75.456Z" fill="white"/>
<path d="M126.426 75.6C122.49 75.6 119.058 74.856 116.13 73.368C113.202 71.88 110.922 69.744 109.29 66.96C107.658 64.176 106.842 60.888 106.842 57.096C106.842 54.216 107.298 51.648 108.21 49.392C109.122 47.088 110.442 45.144 112.17 43.56C113.898 41.928 115.962 40.704 118.362 39.888C120.762 39.024 123.45 38.592 126.426 38.592C130.362 38.592 133.794 39.336 136.722 40.824C139.65 42.312 141.906 44.448 143.49 47.232C145.122 49.968 145.938 53.256 145.938 57.096C145.938 59.928 145.482 62.496 144.57 64.8C143.658 67.104 142.338 69.072 140.61 70.704C138.93 72.288 136.866 73.512 134.418 74.376C132.018 75.192 129.354 75.6 126.426 75.6ZM126.426 66.168C127.722 66.168 128.874 65.856 129.882 65.232C130.89 64.56 131.658 63.576 132.186 62.28C132.762 60.936 133.05 59.208 133.05 57.096C133.05 53.88 132.426 51.576 131.178 50.184C129.93 48.744 128.346 48.024 126.426 48.024C125.13 48.024 123.978 48.336 122.97 48.96C121.962 49.584 121.17 50.568 120.594 51.912C120.018 53.208 119.73 54.936 119.73 57.096C119.73 60.264 120.354 62.568 121.602 64.008C122.85 65.448 124.458 66.168 126.426 66.168Z" fill="white"/>
<path d="M157.642 75.456C155.53 75.456 153.898 74.904 152.746 73.8C151.642 72.696 151.09 71.088 151.09 68.976V45.144C151.09 43.08 151.618 41.496 152.674 40.392C153.778 39.288 155.338 38.736 157.354 38.736C159.37 38.736 160.906 39.288 161.962 40.392C163.018 41.496 163.546 43.08 163.546 45.144V48.096H162.826C163.306 45.216 164.53 42.936 166.498 41.256C168.514 39.576 171.01 38.688 173.986 38.592C175.378 38.544 176.41 38.904 177.082 39.672C177.802 40.392 178.186 41.76 178.234 43.776C178.234 45.504 177.874 46.872 177.154 47.88C176.434 48.888 175.066 49.488 173.05 49.68L171.394 49.824C168.85 50.064 167.002 50.784 165.85 51.984C164.698 53.136 164.122 54.864 164.122 57.168V68.976C164.122 71.088 163.57 72.696 162.466 73.8C161.362 74.904 159.754 75.456 157.642 75.456Z" fill="white"/>
<path d="M194.78 75.6C191.756 75.6 189.068 74.856 186.716 73.368C184.412 71.88 182.588 69.744 181.244 66.96C179.948 64.176 179.3 60.888 179.3 57.096C179.3 53.208 179.948 49.896 181.244 47.16C182.588 44.424 184.412 42.312 186.716 40.824C189.068 39.336 191.756 38.592 194.78 38.592C197.42 38.592 199.796 39.216 201.908 40.464C204.02 41.712 205.436 43.32 206.156 45.288H205.364V29.88C205.364 27.768 205.916 26.16 207.02 25.056C208.124 23.952 209.708 23.4 211.772 23.4C213.788 23.4 215.348 23.952 216.452 25.056C217.604 26.16 218.18 27.768 218.18 29.88V68.976C218.18 71.088 217.628 72.696 216.524 73.8C215.468 74.904 213.908 75.456 211.844 75.456C209.828 75.456 208.268 74.904 207.164 73.8C206.06 72.696 205.508 71.088 205.508 68.976V64.872L206.3 68.4C205.628 70.56 204.212 72.312 202.052 73.656C199.94 74.952 197.516 75.6 194.78 75.6ZM198.884 66.168C200.18 66.168 201.332 65.856 202.34 65.232C203.348 64.56 204.116 63.576 204.644 62.28C205.22 60.936 205.508 59.208 205.508 57.096C205.508 53.88 204.884 51.576 203.636 50.184C202.388 48.744 200.804 48.024 198.884 48.024C197.588 48.024 196.436 48.336 195.428 48.96C194.42 49.584 193.628 50.568 193.052 51.912C192.476 53.208 192.188 54.936 192.188 57.096C192.188 60.264 192.812 62.568 194.06 64.008C195.308 65.448 196.916 66.168 198.884 66.168Z" fill="white"/>
<path d="M238.996 75.6C236.884 75.6 234.724 75.432 232.516 75.096C230.356 74.808 228.388 74.256 226.612 73.44C225.412 72.96 224.548 72.312 224.02 71.496C223.54 70.68 223.3 69.816 223.3 68.904C223.348 67.992 223.612 67.176 224.092 66.456C224.62 65.688 225.292 65.16 226.108 64.872C226.972 64.536 227.932 64.56 228.988 64.944C231.004 65.664 232.804 66.192 234.388 66.528C236.02 66.816 237.58 66.96 239.068 66.96C240.844 66.96 242.116 66.72 242.884 66.24C243.652 65.712 244.036 65.04 244.036 64.224C244.036 63.504 243.772 62.952 243.244 62.568C242.764 62.184 242.068 61.92 241.156 61.776L233.164 60.48C230.188 59.952 227.884 58.872 226.252 57.24C224.62 55.56 223.804 53.376 223.804 50.688C223.804 48.192 224.5 46.056 225.892 44.28C227.332 42.456 229.276 41.064 231.724 40.104C234.22 39.096 237.076 38.592 240.292 38.592C242.452 38.592 244.42 38.76 246.196 39.096C247.972 39.384 249.7 39.936 251.38 40.752C252.436 41.184 253.18 41.808 253.612 42.624C254.044 43.44 254.212 44.304 254.116 45.216C254.02 46.08 253.708 46.896 253.18 47.664C252.7 48.384 252.028 48.888 251.164 49.176C250.3 49.416 249.292 49.344 248.14 48.96C246.556 48.336 245.14 47.88 243.892 47.592C242.692 47.304 241.564 47.16 240.508 47.16C238.54 47.16 237.148 47.424 236.332 47.952C235.516 48.48 235.108 49.152 235.108 49.968C235.108 50.592 235.324 51.12 235.756 51.552C236.188 51.936 236.86 52.2 237.772 52.344L245.764 53.712C248.836 54.192 251.188 55.248 252.82 56.88C254.5 58.464 255.34 60.624 255.34 63.36C255.34 67.248 253.852 70.272 250.876 72.432C247.9 74.544 243.94 75.6 238.996 75.6Z" fill="white"/>
<path d="M190.733 112.4L196.789 86.1747C197.141 84.6495 198.607 83.6514 200.155 83.8826L226.593 87.83C229.288 88.2324 230.094 91.7303 227.846 93.2714L195.352 115.549C193.097 117.096 190.118 115.065 190.733 112.4Z" fill="#F4A340"/>
<path d="M323.08 73.648C321.064 73.648 319.504 73.048 318.4 71.848C317.296 70.648 316.744 68.92 316.744 66.664V43.912C316.744 41.656 317.296 39.928 318.4 38.728C319.504 37.528 321.064 36.928 323.08 36.928C325.144 36.928 326.728 37.528 327.832 38.728C328.984 39.928 329.56 41.656 329.56 43.912V66.664C329.56 68.92 329.008 70.648 327.904 71.848C326.8 73.048 325.192 73.648 323.08 73.648ZM323.08 31.816C320.824 31.816 319.072 31.288 317.824 30.232C316.624 29.176 316.024 27.64 316.024 25.624C316.024 23.656 316.624 22.144 317.824 21.088C319.072 20.032 320.824 19.504 323.08 19.504C325.432 19.504 327.208 20.032 328.408 21.088C329.608 22.144 330.208 23.656 330.208 25.624C330.208 27.64 329.608 29.176 328.408 30.232C327.208 31.288 325.432 31.816 323.08 31.816ZM342.61 73.648C340.594 73.648 339.034 73.096 337.93 71.992C336.826 70.888 336.274 69.28 336.274 67.168V43.336C336.274 41.272 336.802 39.688 337.858 38.584C338.962 37.48 340.522 36.928 342.538 36.928C344.554 36.928 346.09 37.48 347.146 38.584C348.202 39.688 348.73 41.272 348.73 43.336V46.72L347.938 43.768C349.09 41.512 350.722 39.784 352.834 38.584C354.994 37.384 357.442 36.784 360.178 36.784C363.01 36.784 365.338 37.336 367.162 38.44C368.986 39.496 370.354 41.176 371.266 43.48C372.178 45.736 372.634 48.592 372.634 52.048V67.168C372.634 69.28 372.082 70.888 370.978 71.992C369.874 73.096 368.29 73.648 366.226 73.648C364.162 73.648 362.578 73.096 361.474 71.992C360.37 70.888 359.818 69.28 359.818 67.168V52.552C359.818 50.392 359.434 48.856 358.666 47.944C357.946 47.032 356.866 46.576 355.426 46.576C353.506 46.576 351.97 47.2 350.818 48.448C349.666 49.648 349.09 51.28 349.09 53.344V67.168C349.09 71.488 346.93 73.648 342.61 73.648ZM397.794 73.792C394.194 73.792 391.218 73.24 388.866 72.136C386.562 71.032 384.834 69.376 383.682 67.168C382.53 64.912 381.954 62.104 381.954 58.744V47.008H379.506C377.97 47.008 376.77 46.6 375.906 45.784C375.09 44.968 374.682 43.792 374.682 42.256C374.682 40.72 375.09 39.568 375.906 38.8C376.77 37.984 377.97 37.576 379.506 37.576H381.954V33.112C381.954 31 382.506 29.392 383.61 28.288C384.714 27.184 386.298 26.632 388.362 26.632C390.426 26.632 392.01 27.184 393.114 28.288C394.218 29.392 394.77 31 394.77 33.112V37.576H400.674C402.258 37.576 403.458 37.984 404.274 38.8C405.138 39.568 405.57 40.72 405.57 42.256C405.57 43.792 405.138 44.968 404.274 45.784C403.458 46.6 402.258 47.008 400.674 47.008H394.77V58.312C394.77 60.088 395.178 61.408 395.994 62.272C396.858 63.088 398.202 63.496 400.026 63.496C400.698 63.496 401.346 63.424 401.97 63.28C402.594 63.136 403.17 63.064 403.698 63.064C404.466 63.016 405.09 63.256 405.57 63.784C406.05 64.264 406.29 65.392 406.29 67.168C406.29 68.608 406.074 69.832 405.642 70.84C405.21 71.8 404.442 72.496 403.338 72.928C402.666 73.168 401.754 73.36 400.602 73.504C399.45 73.696 398.514 73.792 397.794 73.792ZM426.731 73.792C422.795 73.792 419.363 73.048 416.435 71.56C413.507 70.072 411.227 67.936 409.595 65.152C407.963 62.368 407.147 59.08 407.147 55.288C407.147 52.408 407.603 49.84 408.515 47.584C409.427 45.28 410.747 43.336 412.475 41.752C414.203 40.12 416.267 38.896 418.667 38.08C421.067 37.216 423.755 36.784 426.731 36.784C430.667 36.784 434.099 37.528 437.027 39.016C439.955 40.504 442.211 42.64 443.795 45.424C445.427 48.16 446.243 51.448 446.243 55.288C446.243 58.12 445.787 60.688 444.875 62.992C443.963 65.296 442.643 67.264 440.915 68.896C439.235 70.48 437.171 71.704 434.723 72.568C432.323 73.384 429.659 73.792 426.731 73.792ZM426.731 64.36C428.027 64.36 429.179 64.048 430.187 63.424C431.195 62.752 431.963 61.768 432.491 60.472C433.067 59.128 433.355 57.4 433.355 55.288C433.355 52.072 432.731 49.768 431.483 48.376C430.235 46.936 428.651 46.216 426.731 46.216C425.435 46.216 424.283 46.528 423.275 47.152C422.267 47.776 421.475 48.76 420.899 50.104C420.323 51.4 420.035 53.128 420.035 55.288C420.035 58.456 420.659 60.76 421.907 62.2C423.155 63.64 424.763 64.36 426.731 64.36Z" fill="#210A5A"/>
</g>
<defs>
<clipPath id="clip0_9584_5183">
<rect width="446" height="120" fill="white"/>
</clipPath>
</defs>
</svg>
